# xmcd CD database file
#
# Track frame offsets:
#	150
#	3757
#	26557
#	48779
#	71270
#	100502
#	122255
#	148108
#	152758
#	172775
#	202309
#	223459
#	253371
#
# Disc length: 3700 seconds
#
# Revision: 0
# Processed by: cddbd v1.5.1PL0 Copyright (c) Steve Scherf et al.
# Submitted via: CDex 1.51
#
DISCID=ae0e720d
DTITLE=PING-Music Label - Galvanic Music Objection
DYEAR=1900
DGENRE=未分類 (日本)
TTITLE0=Introduction
TTITLE1=ろまんちっくがとまらない
TTITLE2=体育会系大喜利部
TTITLE3=ORDER MAID 2001
TTITLE4=なつ。
TTITLE5=ハムスターの憂鬱
TTITLE6=FEENA
TTITLE7=FM in(u)terlude
TTITLE8=負け犬downloader
TTITLE9=M&Mz
TTITLE10=象南我覇
TTITLE11=Hybrid Bunny Kitchen (pak-remix)
TTITLE12=TouDai
EXTD=
EXTT0=
EXTT1=
EXTT2=
EXTT3=
EXTT4=
EXTT5=
EXTT6=
EXTT7=
EXTT8=
EXTT9=
EXTT10=
EXTT11=
EXTT12=
PLAYORDER=
